<svg width="1200" height="720" viewBox="0 0 1200 720" fill="none" xmlns="http://www.w3.org/2000/svg">
  <rect width="1200" height="720" fill="#0B1320"/>
  <rect x="32" y="32" width="1136" height="656" rx="28" fill="#111B2E" stroke="#20304C"/>
  <rect x="72" y="72" width="1056" height="78" rx="18" fill="#14233A"/>
  <circle cx="108" cy="111" r="10" fill="#FF6B6B"/>
  <circle cx="138" cy="111" r="10" fill="#FFD166"/>
  <circle cx="168" cy="111" r="10" fill="#06D6A0"/>
  <text x="220" y="118" fill="#F4F7FB" font-family="Arial, Helvetica, sans-serif" font-size="30" font-weight="700">SIMS Dashboard Preview</text>
  <text x="74" y="190" fill="#9FB3C8" font-family="Arial, Helvetica, sans-serif" font-size="20">A concise visual summary for GitHub. Replace with real screenshots later if needed.</text>

  <rect x="72" y="228" width="230" height="128" rx="20" fill="#1E88E5"/>
  <text x="98" y="274" fill="#FFFFFF" font-family="Arial, Helvetica, sans-serif" font-size="19">Total Invoiced</text>
  <text x="98" y="320" fill="#FFFFFF" font-family="Arial, Helvetica, sans-serif" font-size="38" font-weight="700">QAR 2.48M</text>

  <rect x="322" y="228" width="230" height="128" rx="20" fill="#00A86B"/>
  <text x="348" y="274" fill="#FFFFFF" font-family="Arial, Helvetica, sans-serif" font-size="19">Collected</text>
  <text x="348" y="320" fill="#FFFFFF" font-family="Arial, Helvetica, sans-serif" font-size="38" font-weight="700">QAR 1.97M</text>

  <rect x="572" y="228" width="230" height="128" rx="20" fill="#F39C12"/>
  <text x="598" y="274" fill="#FFFFFF" font-family="Arial, Helvetica, sans-serif" font-size="19">Expenses</text>
  <text x="598" y="320" fill="#FFFFFF" font-family="Arial, Helvetica, sans-serif" font-size="38" font-weight="700">QAR 184K</text>

  <rect x="822" y="228" width="230" height="128" rx="20" fill="#E74C3C"/>
  <text x="848" y="274" fill="#FFFFFF" font-family="Arial, Helvetica, sans-serif" font-size="19">Outstanding</text>
  <text x="848" y="320" fill="#FFFFFF" font-family="Arial, Helvetica, sans-serif" font-size="38" font-weight="700">QAR 510K</text>

  <rect x="72" y="392" width="648" height="236" rx="24" fill="#132038" stroke="#223455"/>
  <text x="100" y="432" fill="#F4F7FB" font-family="Arial, Helvetica, sans-serif" font-size="24" font-weight="700">Monthly Finance Trends</text>
  <text x="100" y="462" fill="#8DA4BD" font-family="Arial, Helvetica, sans-serif" font-size="16">Invoices, collections, and expenses over time</text>
  <polyline points="112,572 192,530 272,500 352,515 432,468 512,442 592,404 672,374" fill="none" stroke="#45A3FF" stroke-width="6" stroke-linecap="round" stroke-linejoin="round"/>
  <polyline points="112,592 192,560 272,544 352,528 432,510 512,480 592,452 672,430" fill="none" stroke="#1ED79A" stroke-width="6" stroke-linecap="round" stroke-linejoin="round"/>
  <polyline points="112,610 192,598 272,590 352,582 432,566 512,554 592,544 672,528" fill="none" stroke="#FFB84D" stroke-width="6" stroke-linecap="round" stroke-linejoin="round"/>

  <rect x="748" y="392" width="304" height="236" rx="24" fill="#132038" stroke="#223455"/>
  <text x="776" y="432" fill="#F4F7FB" font-family="Arial, Helvetica, sans-serif" font-size="24" font-weight="700">Modules</text>
  <rect x="776" y="458" width="248" height="36" rx="12" fill="#1A2A45"/>
  <text x="796" y="482" fill="#DCE7F2" font-family="Arial, Helvetica, sans-serif" font-size="18">Sales: customers, quotes, invoices</text>
  <rect x="776" y="506" width="248" height="36" rx="12" fill="#1A2A45"/>
  <text x="796" y="530" fill="#DCE7F2" font-family="Arial, Helvetica, sans-serif" font-size="18">Receipts and allocations</text>
  <rect x="776" y="554" width="248" height="36" rx="12" fill="#1A2A45"/>
  <text x="796" y="578" fill="#DCE7F2" font-family="Arial, Helvetica, sans-serif" font-size="18">Statements and P&amp;L reporting</text>
</svg>